<svg xmlns="http://www.w3.org/2000/svg" xmlns:xlink="http://www.w3.org/1999/xlink" width="321" zoomAndPan="magnify" viewBox="0 0 240.75 231" height="308" preserveAspectRatio="xMidYMid meet" version="1.0"><defs><clipPath id="09a1e59357"><path d="M 0 0.121094 L 240.5 0.121094 L 240.5 228 L 0 228 Z M 0 0.121094 " clip-rule="nonzero"/></clipPath></defs><g clip-path="url(#09a1e59357)"><path fill="#fecd1a" d="M 3.800781 226.84375 C 0.816406 209.410156 0.0507812 191.59375 1.582031 173.929688 C 1.273438 115.964844 1.042969 58.003906 4.1875 0.121094 C 81.867188 3.332031 162.691406 2.644531 240.453125 1.574219 C 240.144531 17.324219 235.703125 31.472656 226.277344 44.242188 C 223.0625 48.597656 219.382812 52.574219 214.941406 55.632812 C 201.992188 64.503906 182.535156 65.039062 174.796875 78.726562 C 168.285156 90.121094 173.800781 104.574219 172.113281 117.574219 C 170.734375 128.660156 163.996094 138.601562 155.03125 145.253906 C 146.066406 151.90625 135.113281 155.5 124.003906 156.875 C 114.042969 158.097656 103.242188 157.945312 95.199219 163.910156 C 86.082031 170.640625 83.476562 182.796875 78.957031 193.199219 C 67.082031 220.574219 33.605469 230.132812 3.800781 226.84375 Z M 3.800781 226.84375 " fill-opacity="1" fill-rule="nonzero"/></g></svg>