<svg xmlns="http://www.w3.org/2000/svg" xmlns:xlink="http://www.w3.org/1999/xlink" width="401" zoomAndPan="magnify" viewBox="0 0 300.75 285.749983" height="381" preserveAspectRatio="xMidYMid meet" version="1.0"><defs><clipPath id="8f0d3f2674"><path d="M 16 18 L 281 18 L 281 261 L 16 261 Z M 16 18 " clip-rule="nonzero"/></clipPath><clipPath id="ae44c216bd"><path d="M 29.449219 -1 L 296.683594 33.640625 L 264.261719 283.765625 L -2.972656 249.125 Z M 29.449219 -1 " clip-rule="nonzero"/></clipPath><clipPath id="0939519711"><path d="M 29.449219 -1 L 296.683594 33.640625 L 264.261719 283.765625 L -2.972656 249.125 Z M 29.449219 -1 " clip-rule="nonzero"/></clipPath><clipPath id="dfe9da506d"><rect x="0" width="296" y="0" height="276"/></clipPath></defs><g transform="matrix(1, 0, 0, 1, 3, 1)"><g clip-path="url(#dfe9da506d)"><g clip-path="url(#8f0d3f2674)"><g clip-path="url(#ae44c216bd)"><g clip-path="url(#0939519711)"><path fill="#e65c59" d="M 269.820312 77.085938 C 258.214844 54.332031 236.511719 37.773438 212.625 28.738281 C 188.738281 19.699219 162.722656 17.609375 137.195312 18.519531 C 114.269531 19.335938 90.867188 22.671875 70.664062 33.539062 C 38.5 50.835938 18.074219 86.730469 16.625 123.21875 C 15.175781 159.710938 31.621094 195.890625 57.992188 221.148438 C 91.972656 253.703125 143.015625 268.171875 188.476562 256.042969 C 215.507812 248.832031 239.75 232.074219 256.691406 209.890625 C 275.167969 185.703125 280.589844 159.496094 280.707031 129.675781 C 280.773438 111.648438 278.085938 93.296875 269.820312 77.085938 Z M 269.820312 77.085938 " fill-opacity="1" fill-rule="nonzero"/></g></g></g></g></g></svg>