<svg xmlns="http://www.w3.org/2000/svg" xmlns:xlink="http://www.w3.org/1999/xlink" width="116" zoomAndPan="magnify" viewBox="0 0 87 61.499998" height="82" preserveAspectRatio="xMidYMid meet" version="1.0"><defs><clipPath id="6100aae777"><path d="M 0.351562 0 L 85.90625 0 L 85.90625 60.261719 L 0.351562 60.261719 Z M 0.351562 0 " clip-rule="nonzero"/></clipPath></defs><g clip-path="url(#6100aae777)"><path fill="#dbcbb8" d="M 84.789062 25.363281 C 85.039062 25.535156 85.5 25.507812 85.601562 25.699219 C 85.726562 25.9375 85.902344 26.316406 85.855469 26.566406 C 85.808594 26.800781 85.226562 26.855469 85.074219 27.078125 C 84.933594 27.28125 84.925781 27.574219 84.734375 27.75 C 84.542969 27.925781 84.292969 28.019531 84.085938 28.148438 C 83.894531 28.3125 83.816406 28.609375 83.664062 28.816406 C 83.511719 29.019531 83.15625 29.082031 83.011719 29.292969 C 82.871094 29.503906 82.867188 29.796875 82.699219 29.980469 C 82.527344 30.167969 82.324219 30.308594 82.089844 30.425781 C 81.960938 30.648438 82.132812 31.125 81.972656 31.328125 C 81.816406 31.535156 81.292969 31.445312 81.117188 31.640625 C 80.945312 31.832031 80.78125 32.027344 80.601562 32.214844 C 80.421875 32.402344 80.238281 32.589844 80.0625 32.777344 C 79.882812 32.964844 79.839844 33.277344 79.671875 33.472656 C 79.5 33.667969 79.136719 33.707031 78.988281 33.917969 C 78.816406 34.109375 78.613281 34.257812 78.441406 34.449219 C 78.269531 34.640625 78.414062 35.113281 78.242188 35.304688 C 78.070312 35.5 77.890625 35.683594 77.71875 35.875 C 77.546875 36.070312 77.136719 36.046875 76.964844 36.238281 C 76.789062 36.429688 76.816406 36.800781 76.640625 36.992188 C 76.46875 37.179688 76.253906 37.335938 76.078125 37.527344 C 75.902344 37.714844 75.8125 37.984375 75.632812 38.171875 C 75.457031 38.355469 75.105469 38.378906 74.925781 38.5625 C 74.746094 38.746094 74.535156 38.898438 74.351562 39.078125 C 74.167969 39.257812 74.019531 39.476562 73.832031 39.652344 C 73.644531 39.828125 73.441406 40 73.25 40.171875 C 73.148438 40.359375 73.367188 40.722656 73.273438 40.910156 C 73.175781 41.097656 72.621094 41.003906 72.492188 41.171875 C 72.367188 41.335938 72.371094 41.570312 72.183594 41.6875 C 71.996094 41.839844 71.625 41.808594 71.449219 41.972656 C 71.277344 42.136719 71.382812 42.59375 71.21875 42.769531 C 71.054688 42.941406 70.644531 42.898438 70.484375 43.074219 C 70.324219 43.253906 70.570312 43.796875 70.410156 43.972656 C 70.25 44.152344 70.007812 44.261719 69.84375 44.4375 C 69.679688 44.613281 69.296875 44.574219 69.125 44.742188 C 68.953125 44.90625 68.824219 45.125 68.640625 45.277344 C 68.507812 45.496094 68.132812 45.53125 67.984375 45.730469 C 67.835938 45.933594 67.988281 46.359375 67.820312 46.546875 C 67.65625 46.734375 67.554688 46.996094 67.375 47.171875 C 67.199219 47.347656 66.953125 47.441406 66.765625 47.609375 C 66.636719 47.867188 66.582031 48.195312 66.398438 48.40625 C 66.214844 48.621094 65.648438 48.460938 65.421875 48.628906 C 65.273438 48.808594 65.605469 49.410156 65.464844 49.597656 C 65.324219 49.785156 64.792969 49.679688 64.65625 49.871094 C 64.519531 50.058594 64.550781 50.371094 64.410156 50.554688 C 64.265625 50.742188 64.164062 50.964844 64.011719 51.140625 C 63.859375 51.316406 63.792969 51.605469 63.625 51.765625 C 63.453125 51.921875 63.164062 51.921875 62.972656 52.058594 C 62.917969 52.308594 62.976562 52.679688 62.824219 52.867188 C 62.675781 53.050781 62.414062 53.179688 62.207031 53.320312 C 62.085938 53.523438 61.980469 53.6875 61.851562 53.882812 C 61.71875 54.078125 61.464844 54.199219 61.324219 54.386719 C 61.183594 54.574219 61.105469 54.824219 60.957031 55.003906 C 60.808594 55.1875 60.339844 55.101562 60.183594 55.28125 C 60.03125 55.460938 60.128906 55.855469 59.972656 56.03125 C 59.8125 56.207031 59.394531 56.144531 59.238281 56.320312 C 59.078125 56.492188 58.890625 56.628906 58.730469 56.804688 C 58.554688 56.96875 58.488281 57.160156 58.289062 57.265625 C 58.085938 57.375 58.011719 57.847656 57.785156 57.910156 C 57.566406 57.972656 57.246094 57.640625 57.015625 57.671875 C 56.785156 57.707031 56.546875 57.558594 56.3125 57.578125 C 56.082031 57.597656 55.878906 57.984375 55.652344 58.007812 C 55.417969 58.03125 55.144531 57.902344 54.917969 57.945312 C 54.660156 58.136719 54.460938 58.648438 54.160156 58.695312 C 53.863281 58.742188 53.488281 58.058594 53.179688 58 C 52.910156 58.074219 52.707031 58.722656 52.453125 58.769531 C 52.183594 58.820312 51.835938 58.308594 51.570312 58.339844 C 51.304688 58.375 51.105469 59.007812 50.832031 59.035156 C 50.574219 59.058594 50.257812 58.613281 49.980469 58.644531 C 49.703125 58.675781 49.539062 59.183594 49.277344 59.265625 C 49.015625 59.34375 48.675781 59.183594 48.410156 59.257812 C 48.113281 59.296875 47.800781 59.136719 47.507812 59.148438 C 47.210938 59.15625 46.894531 59.234375 46.609375 59.363281 C 46.382812 59.414062 46.152344 59.375 45.921875 59.414062 C 45.691406 59.449219 45.484375 59.519531 45.25 59.519531 C 45.015625 59.523438 44.78125 59.304688 44.550781 59.253906 C 44.367188 59.308594 44.179688 59.5 43.996094 59.507812 C 43.808594 59.515625 43.6875 59.878906 43.507812 59.808594 C 43.308594 59.964844 43.039062 59.890625 42.792969 59.945312 C 42.558594 60 42.21875 60.257812 41.964844 60.1875 C 41.742188 60.128906 41.597656 59.726562 41.378906 59.554688 C 41.210938 59.382812 41.21875 59.078125 41.078125 58.886719 C 40.933594 58.695312 40.4375 58.742188 40.3125 58.535156 C 40.1875 58.332031 40.402344 57.933594 40.285156 57.722656 C 40.171875 57.511719 39.699219 57.492188 39.589844 57.277344 C 39.476562 57.066406 39.394531 56.847656 39.277344 56.640625 C 39.160156 56.429688 39.324219 56.046875 39.191406 55.847656 C 39.019531 55.6875 39 55.359375 38.832031 55.1875 C 38.664062 55.019531 38.476562 54.960938 38.367188 54.753906 C 38.261719 54.554688 37.957031 54.449219 37.960938 54.191406 C 37.8125 54.011719 37.8125 53.726562 37.671875 53.539062 C 37.53125 53.351562 37.109375 53.367188 36.972656 53.175781 C 36.835938 52.984375 36.683594 52.800781 36.550781 52.605469 C 36.417969 52.414062 36.257812 52.238281 36.125 52.046875 C 35.988281 51.851562 36.167969 51.4375 36.03125 51.25 C 35.894531 51.058594 35.722656 50.886719 35.578125 50.703125 C 35.429688 50.519531 35.164062 50.429688 35.003906 50.253906 C 34.855469 50.023438 34.804688 49.730469 34.695312 49.476562 C 34.585938 49.226562 34.613281 48.773438 34.371094 48.601562 C 34.152344 48.4375 33.722656 48.539062 33.539062 48.34375 C 33.355469 48.144531 33.195312 47.90625 33.046875 47.679688 C 32.898438 47.457031 32.871094 47.160156 32.761719 46.910156 C 32.648438 46.667969 32.730469 46.320312 32.65625 46.054688 C 32.511719 45.902344 32.148438 45.910156 32.074219 45.734375 C 31.921875 45.773438 31.800781 45.808594 31.632812 45.808594 C 31.394531 45.824219 31.164062 45.960938 30.925781 45.976562 C 30.6875 45.992188 30.421875 45.644531 30.183594 45.664062 C 29.941406 45.683594 29.707031 45.742188 29.46875 45.761719 C 29.230469 45.78125 29.027344 46.199219 28.789062 46.226562 C 28.550781 46.25 28.289062 46.019531 28.050781 46.046875 C 27.8125 46.074219 27.535156 45.796875 27.296875 45.828125 C 27.058594 45.859375 26.886719 46.375 26.652344 46.410156 C 26.414062 46.445312 26.09375 45.964844 25.859375 46.003906 C 25.621094 46.042969 25.410156 46.265625 25.175781 46.3125 C 24.941406 46.355469 24.761719 46.6875 24.53125 46.738281 C 24.292969 46.789062 24.035156 46.765625 23.804688 46.824219 C 23.5625 46.800781 23.320312 46.902344 23.082031 46.90625 C 22.839844 46.910156 22.574219 46.496094 22.335938 46.519531 C 22.097656 46.546875 21.9375 47.148438 21.703125 47.1875 C 21.464844 47.226562 21.183594 46.980469 20.945312 47.027344 C 20.714844 47.074219 20.503906 47.242188 20.269531 47.292969 C 20.035156 47.339844 19.742188 47.101562 19.503906 47.148438 C 19.261719 47.199219 19.027344 47.273438 18.78125 47.320312 C 18.539062 47.367188 18.285156 47.339844 18.039062 47.378906 C 17.796875 47.417969 17.542969 47.394531 17.300781 47.433594 C 17.054688 47.46875 16.832031 47.648438 16.585938 47.683594 C 16.339844 47.722656 16.144531 48.089844 15.898438 48.128906 C 15.65625 48.164062 15.335938 47.726562 15.089844 47.765625 C 14.84375 47.804688 14.636719 48.066406 14.390625 48.109375 C 14.148438 48.15625 13.914062 48.242188 13.671875 48.296875 C 13.429688 48.347656 13.222656 48.535156 12.980469 48.597656 C 12.742188 48.660156 12.515625 48.925781 12.28125 49 C 12.023438 48.996094 11.738281 48.550781 11.515625 48.550781 C 11.257812 48.550781 11.015625 48.363281 10.792969 48.363281 C 10.539062 48.371094 10.296875 48.417969 10.070312 48.429688 C 9.828125 48.4375 9.621094 48.945312 9.382812 48.960938 C 9.152344 48.972656 8.898438 48.613281 8.644531 48.628906 C 8.425781 48.644531 8.203125 48.863281 7.945312 48.878906 C 7.726562 48.894531 7.507812 48.699219 7.25 48.714844 C 7.007812 48.625 6.726562 48.902344 6.476562 48.882812 C 6.230469 48.867188 5.890625 48.914062 5.65625 48.792969 C 5.335938 48.652344 5.304688 48.125 5.230469 47.824219 C 5.007812 47.675781 4.808594 47.480469 4.703125 47.179688 C 4.613281 46.9375 4.660156 46.679688 4.621094 46.425781 C 4.578125 46.175781 4.410156 45.941406 4.394531 45.683594 C 4.375 45.429688 4.496094 45.160156 4.476562 44.902344 C 4.453125 44.644531 4.324219 44.390625 4.273438 44.140625 C 4.222656 43.890625 4.078125 43.660156 3.972656 43.421875 C 3.960938 43.15625 4.269531 42.875 4.257812 42.609375 C 4.246094 42.347656 3.878906 42.101562 3.863281 41.839844 C 3.847656 41.574219 4.121094 41.292969 4.101562 41.027344 C 4.082031 40.765625 3.570312 40.542969 3.546875 40.28125 C 3.519531 40.019531 3.9375 39.710938 3.90625 39.449219 C 3.875 39.1875 3.832031 38.917969 3.785156 38.65625 C 3.742188 38.398438 3.320312 38.203125 3.265625 37.945312 C 3.230469 37.703125 3.613281 37.390625 3.578125 37.148438 C 3.539062 36.910156 3.460938 36.671875 3.421875 36.429688 C 3.382812 36.1875 2.992188 36.003906 2.953125 35.761719 C 2.914062 35.519531 3.0625 35.25 3.019531 35.007812 C 2.980469 34.765625 2.820312 34.542969 2.777344 34.304688 C 2.738281 34.0625 2.613281 33.835938 2.574219 33.59375 C 2.535156 33.351562 2.730469 33.070312 2.691406 32.828125 C 2.652344 32.589844 2.472656 32.367188 2.433594 32.125 C 2.398438 31.886719 2.492188 31.625 2.460938 31.382812 C 2.425781 31.140625 2.335938 30.90625 2.304688 30.660156 C 2.273438 30.417969 1.945312 30.210938 1.917969 29.96875 C 1.886719 29.726562 2.4375 29.417969 2.414062 29.175781 C 2.390625 28.933594 1.855469 28.757812 1.835938 28.515625 C 1.773438 28.300781 1.976562 28.046875 1.941406 27.832031 C 1.910156 27.617188 2.078125 27.402344 2.078125 27.183594 C 2.082031 26.96875 1.949219 26.75 1.988281 26.53125 C 1.949219 26.292969 1.695312 26.082031 1.65625 25.84375 C 1.613281 25.605469 1.902344 25.320312 1.878906 25.082031 C 1.855469 24.839844 1.882812 24.621094 1.894531 24.378906 C 1.910156 24.140625 1.675781 23.902344 1.746094 23.667969 C 1.597656 23.433594 1.300781 23.246094 1.246094 22.996094 C 1.191406 22.746094 1.679688 22.421875 1.675781 22.160156 C 1.671875 21.902344 1.757812 21.648438 1.757812 21.386719 C 1.761719 21.128906 1.421875 20.875 1.390625 20.617188 C 1.320312 20.363281 0.992188 20.132812 0.96875 19.875 C 0.945312 19.617188 1.433594 19.328125 1.433594 19.070312 C 1.433594 18.8125 0.980469 18.554688 0.980469 18.296875 C 0.980469 18.035156 1.242188 17.78125 1.21875 17.523438 C 1.191406 17.265625 1.140625 17.011719 1.074219 16.757812 C 1.117188 16.5 1.265625 16.242188 1.28125 15.980469 C 1.296875 15.71875 1.039062 15.449219 1.042969 15.1875 C 1.046875 14.925781 0.914062 14.65625 0.917969 14.398438 C 0.925781 14.132812 1.53125 13.894531 1.550781 13.632812 C 1.542969 13.613281 1.402344 13.371094 1.398438 13.351562 C 1.171875 13.21875 0.605469 13.433594 0.484375 13.25 C 0.359375 13.050781 0.417969 12.679688 0.390625 12.441406 C 0.363281 12.21875 0.410156 11.953125 0.445312 11.710938 C 0.480469 11.488281 0.359375 11.1875 0.429688 10.960938 C 0.496094 10.738281 0.917969 10.625 1.003906 10.410156 C 1.09375 10.1875 1.328125 10.035156 1.425781 9.832031 C 1.53125 9.601562 1.578125 9.34375 1.667969 9.152344 C 1.722656 8.914062 1.316406 8.511719 1.394531 8.28125 C 1.476562 8.046875 1.953125 7.960938 2.144531 7.785156 C 2.15625 7.515625 2.011719 7.164062 2.105469 6.902344 C 2.199219 6.640625 2.257812 6.351562 2.417969 6.136719 C 2.457031 5.90625 2.71875 5.769531 2.8125 5.566406 C 2.910156 5.355469 2.875 5 3.027344 4.832031 C 3.179688 4.667969 3.625 4.820312 3.835938 4.710938 C 4.097656 4.542969 4.285156 4.117188 4.535156 4.121094 C 4.800781 4.128906 4.964844 4.726562 5.226562 4.8125 C 5.480469 4.902344 5.75 5.042969 6.011719 5.109375 C 6.269531 5.175781 6.597656 4.742188 6.875 4.6875 C 7.117188 4.664062 7.375 4.628906 7.613281 4.621094 C 7.859375 4.613281 8.105469 4.671875 8.347656 4.675781 C 8.589844 4.679688 8.820312 5.027344 9.0625 5.039062 C 9.304688 5.050781 9.542969 5.046875 9.78125 5.066406 C 10.023438 5.082031 10.296875 4.734375 10.535156 4.753906 C 10.777344 4.773438 11.011719 4.886719 11.253906 4.90625 C 11.492188 4.925781 11.710938 5.3125 11.953125 5.328125 C 12.191406 5.34375 12.460938 4.855469 12.703125 4.863281 C 12.945312 4.875 13.183594 5.09375 13.425781 5.089844 C 13.699219 5.003906 13.984375 5.144531 14.253906 5.132812 C 14.539062 5.117188 14.898438 4.625 15.164062 4.707031 C 15.425781 4.78125 15.628906 5.078125 15.863281 5.257812 C 16.105469 5.246094 16.296875 5.4375 16.535156 5.441406 C 16.773438 5.445312 17.019531 5.273438 17.257812 5.285156 C 17.496094 5.300781 17.695312 5.75 17.933594 5.773438 C 18.171875 5.796875 18.402344 5.777344 18.640625 5.808594 C 18.875 5.839844 19.125 5.746094 19.359375 5.785156 C 19.597656 5.820312 19.867188 5.644531 20.105469 5.683594 C 20.339844 5.726562 20.535156 5.96875 20.769531 6.015625 C 21.003906 6.058594 21.222656 6.179688 21.457031 6.226562 C 21.691406 6.273438 22.003906 5.941406 22.234375 5.988281 C 22.46875 6.03125 22.652344 6.34375 22.886719 6.386719 C 23.121094 6.429688 23.417969 6.128906 23.652344 6.167969 C 23.890625 6.210938 24.101562 6.363281 24.335938 6.398438 C 24.574219 6.433594 24.785156 6.632812 25.023438 6.660156 C 25.257812 6.6875 25.441406 6.960938 25.679688 6.980469 C 25.902344 7.058594 26.183594 6.867188 26.414062 6.910156 C 26.644531 6.953125 26.90625 6.664062 27.140625 6.683594 C 27.375 6.703125 27.578125 7.101562 27.8125 7.113281 C 28.046875 7.121094 28.300781 6.753906 28.535156 6.765625 C 28.769531 6.777344 29.015625 6.847656 29.246094 6.875 C 29.480469 6.902344 29.75 7.015625 29.980469 7.070312 C 30.179688 7.195312 30.304688 7.710938 30.527344 7.722656 C 30.746094 7.738281 31.023438 7.257812 31.246094 7.28125 C 31.511719 7.359375 31.78125 7.457031 32.050781 7.527344 C 32.320312 7.597656 32.617188 7.542969 32.886719 7.609375 C 33.160156 7.671875 33.378906 8.027344 33.648438 8.089844 C 33.800781 7.902344 34.164062 7.855469 34.316406 7.664062 C 34.464844 7.476562 34.144531 6.910156 34.292969 6.722656 C 34.445312 6.53125 34.785156 6.496094 34.9375 6.304688 C 35.085938 6.117188 35.042969 5.773438 35.191406 5.585938 C 35.34375 5.394531 35.53125 5.234375 35.679688 5.046875 C 35.832031 4.855469 36.183594 4.828125 36.335938 4.636719 C 36.484375 4.449219 36.722656 4.332031 36.875 4.144531 C 37.027344 3.957031 37.171875 3.761719 37.324219 3.578125 C 37.480469 3.390625 37.605469 3.183594 37.761719 3 C 37.917969 2.8125 38.214844 2.753906 38.375 2.570312 C 38.535156 2.386719 38.644531 2.167969 38.804688 1.984375 C 38.964844 1.804688 39.191406 1.691406 39.355469 1.511719 C 39.519531 1.335938 39.328125 0.867188 39.496094 0.695312 C 39.632812 0.4375 39.90625 0.285156 40.09375 0.152344 C 40.308594 0.00390625 40.640625 0.300781 40.898438 0.273438 C 41.136719 0.242188 41.3125 0.269531 41.574219 0.308594 C 41.820312 0.347656 42.046875 0.363281 42.296875 0.433594 C 42.542969 0.5 42.960938 -0.00390625 43.195312 0.0664062 C 43.457031 0.144531 43.597656 0.359375 43.828125 0.40625 C 44.042969 0.34375 44.28125 0.316406 44.511719 0.3125 C 44.746094 0.308594 44.886719 0.773438 45.101562 0.847656 C 45.320312 0.921875 45.621094 0.742188 45.789062 0.910156 C 46.046875 0.894531 46.265625 1.292969 46.496094 1.378906 C 46.78125 1.304688 47.085938 0.964844 47.359375 1.039062 C 47.632812 1.117188 47.84375 1.371094 48.0625 1.554688 C 48.316406 1.578125 48.582031 1.824219 48.839844 1.847656 C 49.101562 1.875 49.453125 1.359375 49.699219 1.421875 C 49.949219 1.488281 50.140625 1.757812 50.363281 1.898438 C 50.578125 1.824219 50.78125 1.835938 50.992188 1.847656 C 51.207031 1.859375 51.429688 1.902344 51.632812 1.980469 C 51.832031 2.054688 52.082031 1.984375 52.261719 2.105469 C 52.492188 2.125 52.6875 2.210938 52.9375 2.253906 C 53.171875 2.292969 53.390625 2.472656 53.628906 2.527344 C 53.863281 2.585938 54.171875 2.417969 54.402344 2.488281 C 54.636719 2.558594 54.851562 2.730469 55.074219 2.808594 C 55.3125 2.894531 55.535156 2.945312 55.746094 3.039062 C 55.972656 3.066406 56.109375 3.554688 56.339844 3.585938 C 56.566406 3.617188 56.863281 3.183594 57.089844 3.21875 C 57.316406 3.253906 57.550781 3.277344 57.777344 3.316406 C 58.003906 3.355469 58.152344 3.8125 58.378906 3.855469 C 58.605469 3.898438 58.90625 3.558594 59.132812 3.605469 C 59.355469 3.648438 59.570312 3.761719 59.792969 3.8125 C 60.019531 3.859375 60.238281 3.847656 60.460938 3.902344 C 60.691406 3.910156 60.855469 4.367188 61.078125 4.398438 C 61.300781 4.433594 61.613281 4.0625 61.828125 4.136719 C 62.039062 4.207031 62.199219 4.425781 62.394531 4.550781 C 62.628906 4.515625 62.859375 4.433594 63.089844 4.445312 C 63.320312 4.457031 63.503906 4.839844 63.734375 4.878906 C 63.964844 4.917969 64.210938 4.828125 64.4375 4.878906 C 64.664062 4.933594 64.910156 4.898438 65.136719 4.953125 C 65.363281 5.003906 65.605469 4.972656 65.832031 5.007812 C 66.09375 5.046875 66.285156 5.441406 66.542969 5.488281 C 66.800781 5.539062 67.132812 5.214844 67.386719 5.273438 C 67.640625 5.328125 67.828125 5.667969 68.082031 5.730469 C 68.335938 5.796875 68.664062 5.566406 68.917969 5.636719 C 69.167969 5.703125 69.390625 5.886719 69.644531 5.957031 C 69.894531 6.027344 70.175781 6.015625 70.425781 6.085938 C 70.652344 6.179688 71.035156 6.136719 71.210938 6.289062 C 71.382812 6.4375 71.132812 7.003906 71.277344 7.191406 C 71.414062 7.375 71.761719 7.414062 71.886719 7.613281 C 72.011719 7.8125 72.066406 8.054688 72.191406 8.246094 C 72.324219 8.441406 72.351562 8.796875 72.503906 8.96875 C 72.765625 9.105469 73.199219 9.070312 73.367188 9.3125 C 73.539062 9.550781 73.320312 10.007812 73.40625 10.285156 C 73.578125 10.527344 74.046875 10.617188 74.226562 10.851562 C 74.410156 11.089844 74.375 11.503906 74.492188 11.777344 C 74.699219 11.890625 75.289062 11.6875 75.4375 11.863281 C 75.585938 12.035156 75.238281 12.582031 75.367188 12.777344 C 75.496094 12.96875 75.925781 12.949219 76.074219 13.121094 C 76.234375 13.316406 76.503906 13.417969 76.664062 13.609375 C 76.828125 13.804688 76.832031 14.125 76.992188 14.320312 C 77.152344 14.515625 77.558594 14.523438 77.710938 14.722656 C 77.863281 14.921875 77.960938 15.183594 78.101562 15.394531 C 78.238281 15.601562 77.957031 16.117188 78.078125 16.339844 C 78.257812 16.484375 78.53125 16.566406 78.6875 16.71875 C 78.847656 16.882812 79.160156 16.902344 79.300781 17.074219 C 79.445312 17.25 79.773438 17.3125 79.898438 17.5 C 80.019531 17.683594 80.050781 17.917969 80.164062 18.117188 C 80.316406 18.273438 80.246094 18.59375 80.390625 18.757812 C 80.53125 18.925781 80.429688 19.257812 80.558594 19.433594 C 80.683594 19.609375 80.832031 19.730469 80.9375 19.921875 C 81.042969 20.109375 81.273438 20.273438 81.351562 20.476562 C 81.582031 20.570312 81.65625 20.820312 81.820312 20.976562 C 81.988281 21.136719 82.261719 21.144531 82.375 21.351562 C 82.484375 21.550781 82.542969 21.777344 82.621094 22 C 82.742188 22.207031 82.953125 22.375 83.09375 22.566406 C 83.238281 22.753906 83.480469 22.863281 83.640625 23.039062 C 83.796875 23.214844 83.796875 23.503906 83.964844 23.675781 C 84.085938 23.960938 84.484375 24.078125 84.632812 24.34375 C 84.78125 24.609375 84.632812 25.09375 84.789062 25.363281 Z M 84.789062 25.363281 " fill-opacity="1" fill-rule="nonzero"/></g><path fill="#132225" d="M 71.125 29.683594 C 70.925781 29.675781 70.6875 29.863281 70.589844 30.101562 C 70.476562 30.371094 70.519531 30.507812 70.707031 30.480469 C 70.894531 30.449219 70.910156 30.5 70.757812 30.609375 C 70.621094 30.707031 70.457031 30.714844 70.390625 30.621094 C 70.324219 30.53125 70.148438 30.734375 69.996094 31.070312 C 69.84375 31.40625 69.554688 31.769531 69.351562 31.875 C 69.152344 31.980469 69.066406 32.101562 69.164062 32.140625 C 69.265625 32.179688 69.261719 32.457031 69.15625 32.75 C 69.023438 33.125 68.585938 33.453125 67.707031 33.828125 C 67.011719 34.125 66.535156 34.40625 66.644531 34.449219 C 66.753906 34.496094 66.746094 34.601562 66.628906 34.6875 C 66.507812 34.773438 66.355469 34.761719 66.289062 34.667969 C 66.21875 34.574219 66.03125 34.667969 65.867188 34.882812 C 65.664062 35.152344 65.488281 35.183594 65.285156 34.992188 C 65.054688 34.773438 64.984375 34.820312 64.921875 35.242188 C 64.84375 35.753906 64.089844 36.265625 61.597656 37.492188 C 61.175781 37.703125 60.5625 38.070312 60.246094 38.308594 C 59.925781 38.550781 59.589844 38.714844 59.5 38.679688 C 59.414062 38.640625 59.289062 38.738281 59.222656 38.890625 C 59.160156 39.046875 58.574219 39.410156 57.925781 39.703125 C 57.273438 39.992188 56.695312 40.34375 56.636719 40.480469 C 56.578125 40.617188 56.199219 40.882812 55.792969 41.070312 C 55.386719 41.253906 55.039062 41.476562 55.023438 41.5625 C 54.957031 41.902344 54.367188 42.300781 54.09375 42.1875 C 53.9375 42.121094 53.769531 42.164062 53.722656 42.28125 C 53.671875 42.398438 53.363281 42.617188 53.039062 42.765625 C 52.710938 42.910156 52.394531 43.152344 52.335938 43.300781 C 52.273438 43.449219 52.121094 43.527344 52 43.476562 C 51.761719 43.375 51.4375 44.648438 51.59375 45.070312 C 51.742188 45.46875 50.800781 46.902344 50.203125 47.179688 C 49.894531 47.324219 49.597656 47.554688 49.539062 47.6875 C 49.402344 48.023438 49.082031 47.851562 48.640625 47.199219 C 48.234375 46.605469 47.984375 46.617188 47.222656 47.269531 C 46.707031 47.710938 46.164062 47.710938 46.351562 47.265625 C 46.425781 47.085938 46.394531 46.902344 46.28125 46.855469 C 46.167969 46.808594 46.039062 46.863281 45.992188 46.976562 C 45.945312 47.085938 45.765625 47.121094 45.597656 47.050781 C 45.429688 46.980469 45.328125 46.835938 45.375 46.726562 C 45.417969 46.617188 45.308594 46.523438 45.128906 46.519531 C 44.949219 46.515625 44.808594 46.347656 44.8125 46.152344 C 44.820312 45.910156 44.90625 45.871094 45.074219 46.03125 C 45.222656 46.175781 45.375 46.144531 45.453125 45.957031 C 45.523438 45.789062 45.488281 45.550781 45.371094 45.4375 C 45.199219 45.269531 45.210938 45.246094 45.417969 45.320312 C 45.566406 45.367188 45.742188 45.265625 45.816406 45.089844 C 45.910156 44.859375 45.816406 44.757812 45.488281 44.726562 C 45.203125 44.703125 45.0625 44.59375 45.121094 44.445312 C 45.183594 44.296875 45.023438 44.175781 44.703125 44.128906 C 44.292969 44.066406 44.21875 43.960938 44.335938 43.597656 C 44.417969 43.347656 44.378906 43.007812 44.242188 42.835938 C 43.972656 42.496094 44.128906 41.886719 44.453125 42.019531 C 44.566406 42.066406 44.714844 41.964844 44.785156 41.796875 C 44.855469 41.628906 44.832031 41.457031 44.734375 41.417969 C 44.441406 41.296875 44.664062 40.34375 44.992188 40.289062 C 45.15625 40.261719 45.347656 40.316406 45.414062 40.410156 C 45.480469 40.503906 45.636719 40.332031 45.761719 40.035156 C 45.929688 39.632812 45.894531 39.488281 45.632812 39.480469 C 45.394531 39.472656 45.332031 39.34375 45.4375 39.082031 C 45.527344 38.871094 45.730469 38.707031 45.894531 38.714844 C 46.113281 38.726562 46.144531 38.601562 46.015625 38.207031 C 45.921875 37.917969 45.9375 37.585938 46.046875 37.464844 C 46.179688 37.320312 46.109375 37.242188 45.828125 37.234375 C 45.503906 37.226562 45.472656 37.160156 45.683594 36.9375 C 45.835938 36.777344 45.875 36.613281 45.773438 36.574219 C 45.667969 36.527344 45.773438 36.269531 46.023438 35.957031 C 46.421875 35.464844 46.414062 35.398438 45.964844 35.210938 C 45.597656 35.058594 45.539062 34.9375 45.738281 34.730469 C 45.953125 34.503906 45.902344 34.445312 45.445312 34.40625 C 45.140625 34.378906 44.714844 34.457031 44.503906 34.582031 C 44.226562 34.742188 44.148438 34.726562 44.222656 34.53125 C 44.300781 34.328125 44.214844 34.304688 43.871094 34.445312 C 43.621094 34.550781 43.191406 34.539062 42.917969 34.425781 C 42.644531 34.3125 42.390625 34.292969 42.351562 34.382812 C 42.316406 34.472656 41.886719 34.527344 41.402344 34.503906 C 40.914062 34.480469 40.359375 34.558594 40.164062 34.675781 C 39.945312 34.804688 39.65625 34.773438 39.414062 34.585938 C 39.148438 34.386719 38.75 34.367188 38.222656 34.535156 C 37.785156 34.671875 37.28125 34.722656 37.097656 34.648438 C 36.917969 34.570312 36.730469 34.605469 36.683594 34.722656 C 36.632812 34.835938 36.410156 34.921875 36.183594 34.910156 C 35.957031 34.898438 35.410156 34.972656 34.96875 35.082031 C 34.527344 35.191406 33.90625 35.253906 33.585938 35.226562 C 33.269531 35.199219 32.808594 35.265625 32.5625 35.375 C 32.316406 35.484375 31.882812 35.515625 31.59375 35.441406 C 31.308594 35.367188 30.886719 35.378906 30.664062 35.472656 C 30.4375 35.566406 30.1875 35.621094 30.109375 35.597656 C 29.507812 35.425781 29.085938 35.40625 28.6875 35.539062 C 28.429688 35.621094 27.96875 35.648438 27.65625 35.597656 C 27.34375 35.546875 26.808594 35.609375 26.464844 35.738281 C 26.125 35.863281 25.707031 35.910156 25.539062 35.839844 C 25.371094 35.773438 25.140625 35.78125 25.023438 35.867188 C 24.90625 35.949219 24.644531 35.949219 24.4375 35.863281 C 24.226562 35.773438 23.933594 35.878906 23.757812 36.109375 C 23.589844 36.332031 23.417969 36.425781 23.371094 36.320312 C 23.328125 36.214844 22.664062 36.238281 21.894531 36.375 C 21.121094 36.511719 20.402344 36.585938 20.289062 36.539062 C 20.179688 36.492188 20.054688 36.539062 20.011719 36.644531 C 19.964844 36.75 19.726562 36.816406 19.476562 36.796875 C 19.230469 36.773438 19.019531 36.882812 19.011719 37.039062 C 19 37.289062 18.042969 37.40625 16.761719 37.320312 C 16.523438 37.304688 16.113281 37.527344 15.84375 37.808594 C 15.507812 38.164062 15.230469 38.265625 14.949219 38.128906 C 14.613281 37.964844 14.613281 37.941406 14.941406 37.988281 C 15.160156 38.019531 15.378906 37.949219 15.425781 37.832031 C 15.476562 37.714844 15.363281 37.617188 15.179688 37.613281 C 14.992188 37.605469 14.847656 37.449219 14.851562 37.261719 C 14.855469 37.074219 14.628906 36.824219 14.34375 36.707031 C 14.058594 36.585938 13.871094 36.375 13.933594 36.230469 C 13.992188 36.089844 13.949219 35.539062 13.84375 35.007812 C 13.734375 34.476562 13.699219 33.910156 13.765625 33.75 C 13.832031 33.585938 13.707031 33.3125 13.480469 33.136719 C 13.164062 32.894531 13.152344 32.804688 13.425781 32.757812 C 13.695312 32.707031 13.765625 32.578125 13.71875 32.21875 C 13.667969 31.835938 13.628906 31.804688 13.515625 32.066406 C 13.4375 32.242188 13.230469 32.328125 13.058594 32.253906 C 12.882812 32.183594 12.832031 32.027344 12.945312 31.910156 C 13.058594 31.789062 13.03125 31.578125 12.882812 31.441406 C 12.714844 31.277344 12.722656 31.027344 12.902344 30.753906 C 13.214844 30.28125 13.023438 29.46875 12.683594 29.847656 C 12.582031 29.964844 12.578125 29.746094 12.675781 29.359375 C 12.847656 28.671875 12.859375 28.664062 13.105469 29.179688 C 13.308594 29.589844 13.367188 29.628906 13.390625 29.355469 C 13.410156 29.164062 13.265625 28.824219 13.074219 28.601562 C 12.878906 28.378906 12.761719 28.164062 12.808594 28.128906 C 12.855469 28.09375 12.742188 28.136719 12.558594 28.226562 C 12.171875 28.414062 11.839844 28.339844 12.132812 28.132812 C 12.238281 28.054688 12.234375 27.765625 12.117188 27.484375 C 11.964844 27.121094 11.988281 26.984375 12.199219 27 C 12.359375 27.011719 12.472656 26.917969 12.453125 26.785156 C 12.433594 26.65625 12.515625 26.59375 12.640625 26.644531 C 12.785156 26.707031 12.851562 26.589844 12.828125 26.304688 C 12.808594 26.066406 12.882812 25.769531 12.992188 25.652344 C 13.320312 25.292969 12.832031 25.246094 12.316406 25.59375 C 12.039062 25.777344 11.757812 25.808594 11.65625 25.667969 C 11.492188 25.4375 11.652344 25.074219 12.726562 23.214844 C 13.03125 22.6875 13.023438 22.664062 12.613281 22.914062 C 12.367188 23.0625 12.136719 23.257812 12.097656 23.347656 C 12.058594 23.4375 11.9375 23.476562 11.824219 23.429688 C 11.710938 23.382812 11.695312 23.164062 11.785156 22.941406 C 11.902344 22.667969 11.839844 22.535156 11.59375 22.527344 C 11.339844 22.519531 11.3125 22.441406 11.5 22.242188 C 11.644531 22.089844 11.664062 21.921875 11.539062 21.871094 C 11.414062 21.820312 11.273438 21.867188 11.226562 21.980469 C 11.179688 22.09375 11.066406 22.152344 10.972656 22.113281 C 10.878906 22.074219 10.964844 21.761719 11.167969 21.417969 C 11.519531 20.816406 11.515625 20.800781 11.039062 21.066406 C 10.597656 21.308594 10.5625 21.300781 10.691406 20.980469 C 10.769531 20.78125 10.734375 20.578125 10.617188 20.527344 C 10.496094 20.480469 10.5 20.367188 10.621094 20.28125 C 10.742188 20.195312 11.003906 20.261719 11.207031 20.433594 C 11.507812 20.6875 11.578125 20.664062 11.585938 20.320312 C 11.609375 19.589844 13.546875 18.933594 14.890625 19.199219 C 16.933594 19.609375 17.324219 19.710938 18.925781 20.242188 C 19.796875 20.53125 20.851562 20.855469 21.265625 20.96875 C 21.683594 21.078125 22.5 21.320312 23.085938 21.503906 C 23.667969 21.6875 24.441406 21.839844 24.800781 21.84375 C 25.164062 21.84375 25.765625 22.015625 26.144531 22.226562 C 26.523438 22.4375 26.855469 22.554688 26.882812 22.484375 C 26.914062 22.414062 27.339844 22.554688 27.835938 22.796875 C 28.332031 23.035156 28.773438 23.148438 28.816406 23.042969 C 28.859375 22.9375 29.273438 23.078125 29.765625 23.367188 C 30.40625 23.738281 30.769531 23.832031 31.125 23.714844 C 31.390625 23.625 31.878906 23.679688 32.210938 23.839844 C 32.539062 23.996094 33.101562 24.113281 33.453125 24.097656 C 33.808594 24.082031 34.128906 24.144531 34.167969 24.242188 C 34.207031 24.335938 34.429688 24.359375 34.660156 24.285156 C 34.890625 24.214844 35.050781 24.234375 35.011719 24.324219 C 34.972656 24.417969 35.097656 24.429688 35.289062 24.351562 C 35.480469 24.273438 35.835938 24.289062 36.074219 24.390625 C 36.316406 24.488281 36.601562 24.535156 36.714844 24.488281 C 36.960938 24.386719 37.371094 24.472656 38.730469 24.921875 C 39.308594 25.113281 39.945312 25.277344 40.140625 25.28125 C 41.027344 25.304688 43.5 25.554688 43.710938 25.640625 C 43.839844 25.695312 44.089844 25.679688 44.269531 25.605469 C 44.761719 25.402344 44.359375 23.945312 43.800781 23.894531 C 43.570312 23.875 43.421875 23.761719 43.472656 23.640625 C 43.523438 23.519531 43.417969 23.363281 43.242188 23.289062 C 43.058594 23.214844 42.945312 23.277344 42.972656 23.449219 C 43 23.625 42.921875 23.65625 42.773438 23.523438 C 42.636719 23.40625 42.605469 23.117188 42.699219 22.878906 C 42.792969 22.644531 42.785156 22.210938 42.683594 21.914062 C 42.476562 21.335938 42.691406 21.09375 43.082031 21.46875 C 43.25 21.628906 43.328125 21.582031 43.335938 21.316406 C 43.34375 21.105469 43.246094 20.894531 43.125 20.84375 C 42.96875 20.777344 43 20.707031 43.230469 20.613281 C 43.480469 20.507812 43.550781 20.253906 43.507812 19.585938 C 43.472656 19.058594 43.605469 18.421875 43.832031 18.019531 C 44.042969 17.644531 44.308594 17.117188 44.425781 16.84375 C 44.664062 16.289062 45.261719 15.972656 45.714844 16.160156 C 45.882812 16.230469 46.113281 16.191406 46.230469 16.074219 C 46.355469 15.949219 46.386719 16.011719 46.304688 16.226562 C 46.171875 16.589844 46.511719 16.929688 46.660156 16.578125 C 46.796875 16.25 47.445312 16.410156 47.914062 16.890625 C 48.597656 17.585938 48.925781 17.6875 49.414062 17.347656 C 49.808594 17.070312 49.8125 17.097656 49.445312 17.652344 C 49.214844 18.003906 49.128906 18.300781 49.242188 18.347656 C 49.492188 18.453125 49.976562 17.960938 49.925781 17.648438 C 49.90625 17.519531 50.03125 17.476562 50.207031 17.550781 C 50.382812 17.621094 50.460938 17.777344 50.378906 17.890625 C 50.296875 18.003906 50.332031 18.1875 50.449219 18.296875 C 50.570312 18.410156 50.710938 18.394531 50.761719 18.269531 C 50.828125 18.113281 50.910156 18.160156 51.027344 18.414062 C 51.117188 18.617188 51.085938 18.929688 50.949219 19.109375 C 50.8125 19.289062 50.804688 19.476562 50.929688 19.527344 C 51.054688 19.582031 51.238281 19.429688 51.339844 19.191406 C 51.488281 18.832031 51.554688 18.820312 51.714844 19.128906 C 51.824219 19.332031 52.023438 19.480469 52.15625 19.457031 C 52.554688 19.394531 52.921875 19.871094 52.851562 20.359375 C 52.804688 20.714844 52.886719 20.800781 53.246094 20.769531 C 54.207031 20.683594 55.636719 20.949219 56.109375 21.300781 C 56.398438 21.515625 56.765625 21.617188 56.992188 21.546875 C 57.285156 21.457031 57.355469 21.488281 57.277344 21.671875 C 57.214844 21.816406 57.308594 21.890625 57.5 21.855469 C 57.972656 21.773438 59.996094 22.578125 60.042969 22.867188 C 60.066406 23.019531 60.234375 23.070312 60.472656 22.996094 C 60.75 22.910156 60.832031 22.941406 60.765625 23.105469 C 60.710938 23.230469 60.808594 23.394531 60.976562 23.464844 C 61.144531 23.535156 61.332031 23.476562 61.394531 23.335938 C 61.46875 23.167969 61.527344 23.210938 61.570312 23.46875 C 61.628906 23.808594 61.683594 23.828125 62.039062 23.628906 C 62.261719 23.507812 62.820312 23.488281 63.277344 23.59375 C 63.738281 23.695312 64.222656 23.667969 64.351562 23.535156 C 64.480469 23.398438 64.636719 23.359375 64.699219 23.445312 C 64.765625 23.53125 65.011719 23.417969 65.257812 23.195312 C 65.5 22.96875 65.792969 22.824219 65.90625 22.871094 C 66.203125 22.996094 66.019531 23.335938 65.664062 23.320312 C 65.503906 23.3125 65.410156 23.414062 65.460938 23.546875 C 65.570312 23.839844 66.425781 23.710938 66.480469 23.390625 C 66.507812 23.242188 66.71875 23.320312 67.105469 23.628906 C 67.421875 23.882812 67.699219 24.097656 67.722656 24.105469 C 67.742188 24.113281 67.734375 24.300781 67.703125 24.519531 C 67.652344 24.894531 67.65625 24.898438 67.820312 24.566406 C 68.007812 24.191406 68.183594 24.21875 69.824219 24.875 C 70.652344 25.207031 70.875 25.378906 70.78125 25.617188 C 70.675781 25.878906 70.703125 25.890625 70.960938 25.710938 C 71.203125 25.539062 71.339844 25.679688 71.644531 26.421875 C 72.03125 27.347656 71.992188 27.503906 71.097656 28.542969 C 70.882812 28.789062 70.890625 28.820312 71.136719 28.667969 C 71.398438 28.507812 71.464844 28.566406 71.507812 28.988281 C 71.574219 29.652344 71.550781 29.695312 71.125 29.683594 Z M 64.90625 31.328125 C 64.714844 31.25 64.519531 31.394531 64.386719 31.714844 C 64.121094 32.347656 64.453125 32.53125 64.832031 31.960938 C 64.988281 31.726562 65.136719 31.519531 65.164062 31.496094 C 65.191406 31.472656 65.074219 31.398438 64.90625 31.328125 Z M 47.269531 16.808594 C 47.152344 16.757812 47.074219 16.851562 47.101562 17.011719 C 47.132812 17.210938 46.960938 17.191406 46.542969 16.941406 C 46.210938 16.742188 45.910156 16.644531 45.878906 16.722656 C 45.804688 16.898438 46.910156 17.589844 47.117188 17.503906 C 47.382812 17.394531 47.492188 16.898438 47.269531 16.808594 Z M 17.273438 31.820312 C 17.15625 31.707031 17.023438 31.703125 16.976562 31.8125 C 16.933594 31.921875 16.996094 32.054688 17.121094 32.105469 C 17.261719 32.164062 17.21875 32.375 17.007812 32.65625 C 16.640625 33.144531 16.65625 33.183594 17.191406 33.199219 C 17.46875 33.207031 17.535156 33.09375 17.515625 32.617188 C 17.5 32.292969 17.394531 31.933594 17.273438 31.820312 Z M 16.386719 24.859375 C 16.644531 24.671875 16.214844 23.570312 15.820312 23.414062 C 15.398438 23.246094 14.878906 23.425781 15.058594 23.675781 C 15.324219 24.042969 15.082031 24.371094 14.765625 24.070312 C 14.523438 23.839844 14.503906 23.863281 14.621094 24.25 C 14.707031 24.53125 14.824219 24.625 14.929688 24.503906 C 15.1875 24.210938 15.703125 24.503906 15.554688 24.859375 C 15.484375 25.027344 15.472656 25.589844 15.53125 26.109375 L 15.636719 27.050781 L 15.878906 26.253906 C 16.023438 25.785156 16.214844 25.492188 16.339844 25.539062 C 16.457031 25.585938 16.460938 25.492188 16.347656 25.332031 C 16.234375 25.167969 16.25 24.957031 16.386719 24.859375 Z M 16.386719 24.859375 " fill-opacity="1" fill-rule="nonzero"/></svg>