<svg xmlns="http://www.w3.org/2000/svg" xmlns:xlink="http://www.w3.org/1999/xlink" width="356" zoomAndPan="magnify" viewBox="0 0 267 266.250005" height="355" preserveAspectRatio="xMidYMid meet" version="1.0"><defs><clipPath id="6ccbb2e130"><path d="M 22 19 L 249 19 L 249 248 L 22 248 Z M 22 19 " clip-rule="nonzero"/></clipPath><clipPath id="071c8cedca"><path d="M 0.375 38.863281 L 227.417969 -0.0390625 L 266.195312 226.265625 L 39.152344 265.167969 Z M 0.375 38.863281 " clip-rule="nonzero"/></clipPath><clipPath id="28fad66384"><path d="M 0.375 38.863281 L 227.417969 -0.0390625 L 266.195312 226.265625 L 39.152344 265.167969 Z M 0.375 38.863281 " clip-rule="nonzero"/></clipPath></defs><g clip-path="url(#6ccbb2e130)"><g clip-path="url(#071c8cedca)"><g clip-path="url(#28fad66384)"><path fill="#fb8900" d="M 111.101562 19.972656 C 101.648438 21.921875 88.164062 27.492188 78 33.804688 C 61.3125 44.167969 46.425781 61.023438 37.773438 79.355469 C 33.9375 87.480469 29.042969 100.011719 27.441406 105.808594 C 23.316406 120.722656 21.667969 141.238281 23.027344 160.707031 C 24.25 178.15625 32.84375 200.226562 44.152344 214.949219 C 57.847656 232.78125 68.171875 239.394531 89.277344 243.84375 C 103.335938 246.808594 127.734375 248.078125 143.765625 246.679688 C 151.882812 245.96875 153.835938 245.636719 162.4375 243.476562 C 171.664062 241.160156 178.9375 238.4375 188.105469 233.859375 C 205.671875 225.085938 216.285156 216.480469 226.871094 202.429688 C 233.394531 193.773438 239.304688 181.640625 242.816406 169.703125 C 245.464844 160.695312 248.109375 144.183594 248.503906 134.167969 C 248.773438 127.300781 248.582031 125.171875 246.707031 114.03125 C 244.871094 103.140625 244.292969 100.789062 242.101562 95.296875 C 236.796875 81.996094 229.230469 69.597656 221.367188 61.320312 C 214.554688 54.144531 203.054688 43.527344 198.046875 39.785156 C 186.160156 30.902344 166.574219 22.578125 152.765625 20.546875 C 145.253906 19.441406 121.28125 18.695312 114.882812 19.367188 C 113.71875 19.488281 112.449219 19.691406 111.101562 19.972656 Z M 111.101562 19.972656 " fill-opacity="1" fill-rule="nonzero"/></g></g></g></svg>